<svg width="451" height="451" viewBox="0 0 451 451" fill="none" xmlns="http://www.w3.org/2000/svg">
<circle cx="224.5" cy="224.5" r="149.5" fill="#383838"/>
<path d="M320.657 230.657C323.781 227.533 323.781 222.467 320.657 219.343L269.745 168.431C266.621 165.307 261.556 165.307 258.431 168.431C255.307 171.556 255.307 176.621 258.431 179.745L303.686 225L258.431 270.255C255.307 273.379 255.307 278.444 258.431 281.569C261.556 284.693 266.621 284.693 269.745 281.569L320.657 230.657ZM135 225V233H315V225V217H135V225Z" fill="#F98E8E"/>
<path d="M104.007 33.7857L103.863 29.4657L124.215 8.53774H128.295L113.463 24.0897L111.447 26.2497L104.007 33.7857ZM100.935 42.1377V8.53774H104.487V42.1377H100.935ZM125.079 42.1377L110.583 25.4337L112.983 22.8417L129.303 42.1377H125.079ZM148.26 42.1377V6.52174H151.668V42.1377H148.26ZM175.071 42.1377V16.9377H178.479V42.1377H175.071ZM176.799 11.3697C176.095 11.3697 175.503 11.1297 175.023 10.6497C174.543 10.1697 174.303 9.59374 174.303 8.92174C174.303 8.24974 174.543 7.68974 175.023 7.24174C175.503 6.76174 176.095 6.52174 176.799 6.52174C177.503 6.52174 178.095 6.74574 178.575 7.19374C179.055 7.64174 179.295 8.20174 179.295 8.87374C179.295 9.57774 179.055 10.1697 178.575 10.6497C178.127 11.1297 177.535 11.3697 176.799 11.3697ZM212.345 42.3777C209.849 42.3777 207.609 41.8337 205.625 40.7457C203.673 39.6257 202.137 38.1057 201.017 36.1857C199.897 34.2337 199.337 32.0097 199.337 29.5137C199.337 26.9857 199.897 24.7617 201.017 22.8417C202.137 20.9217 203.673 19.4177 205.625 18.3297C207.609 17.2417 209.849 16.6977 212.345 16.6977C214.489 16.6977 216.425 17.1137 218.153 17.9457C219.881 18.7777 221.241 20.0257 222.233 21.6897L219.689 23.4177C218.825 22.1377 217.753 21.1937 216.473 20.5857C215.193 19.9777 213.801 19.6737 212.297 19.6737C210.505 19.6737 208.889 20.0897 207.449 20.9217C206.009 21.7217 204.873 22.8577 204.041 24.3297C203.209 25.8017 202.793 27.5297 202.793 29.5137C202.793 31.4977 203.209 33.2257 204.041 34.6977C204.873 36.1697 206.009 37.3217 207.449 38.1537C208.889 38.9537 210.505 39.3537 212.297 39.3537C213.801 39.3537 215.193 39.0497 216.473 38.4417C217.753 37.8337 218.825 36.9057 219.689 35.6577L222.233 37.3857C221.241 39.0177 219.881 40.2657 218.153 41.1297C216.425 41.9617 214.489 42.3777 212.345 42.3777ZM245.161 35.6097L245.257 31.2417L260.953 16.9377H265.129L254.041 27.5457L252.121 29.1777L245.161 35.6097ZM242.473 42.1377V6.52174H245.881V42.1377H242.473ZM262.009 42.1377L251.497 29.0337L253.705 26.3937L266.185 42.1377H262.009ZM294.941 42.3777C292.317 42.3777 290.013 41.8337 288.029 40.7457C286.045 39.6257 284.493 38.1057 283.373 36.1857C282.253 34.2337 281.693 32.0097 281.693 29.5137C281.693 27.0177 282.221 24.8097 283.277 22.8897C284.365 20.9697 285.837 19.4657 287.693 18.3777C289.581 17.2577 291.693 16.6977 294.029 16.6977C296.397 16.6977 298.493 17.2417 300.317 18.3297C302.173 19.3857 303.629 20.8897 304.685 22.8417C305.741 24.7617 306.269 26.9857 306.269 29.5137C306.269 29.6737 306.253 29.8497 306.221 30.0417C306.221 30.2017 306.221 30.3777 306.221 30.5697H284.285V28.0257H304.397L303.053 29.0337C303.053 27.2097 302.653 25.5937 301.853 24.1857C301.085 22.7457 300.029 21.6257 298.685 20.8257C297.341 20.0257 295.789 19.6257 294.029 19.6257C292.301 19.6257 290.749 20.0257 289.373 20.8257C287.997 21.6257 286.925 22.7457 286.157 24.1857C285.389 25.6257 285.005 27.2737 285.005 29.1297V29.6577C285.005 31.5777 285.421 33.2737 286.253 34.7457C287.117 36.1857 288.301 37.3217 289.805 38.1537C291.341 38.9537 293.085 39.3537 295.037 39.3537C296.573 39.3537 297.997 39.0817 299.309 38.5377C300.653 37.9937 301.805 37.1617 302.765 36.0417L304.685 38.2497C303.565 39.5937 302.157 40.6177 300.461 41.3217C298.797 42.0257 296.957 42.3777 294.941 42.3777ZM339.99 16.6977C342.038 16.6977 343.83 17.0977 345.366 17.8977C346.934 18.6657 348.15 19.8497 349.014 21.4497C349.91 23.0497 350.358 25.0657 350.358 27.4977V42.1377H346.95V27.8337C346.95 25.1777 346.278 23.1777 344.934 21.8337C343.622 20.4577 341.766 19.7697 339.366 19.7697C337.574 19.7697 336.006 20.1377 334.662 20.8737C333.35 21.5777 332.326 22.6177 331.59 23.9937C330.886 25.3377 330.534 26.9697 330.534 28.8897V42.1377H327.126V16.9377H330.39V23.8497L329.862 22.5537C330.662 20.7297 331.942 19.3057 333.702 18.2817C335.462 17.2257 337.558 16.6977 339.99 16.6977Z" fill="black"/>
<path d="M416.489 104.008L420.809 103.864L441.737 124.216L441.737 128.296L426.185 113.464L424.025 111.448L416.489 104.008ZM408.137 100.936L441.737 100.936L441.737 104.488L408.137 104.488L408.137 100.936ZM408.137 125.08L424.841 110.584L427.433 112.984L408.137 129.304L408.137 125.08ZM408.137 148.261L443.753 148.261L443.753 151.669L408.137 151.669L408.137 148.261ZM408.137 175.071L433.337 175.071L433.337 178.479L408.137 178.479L408.137 175.071ZM438.905 176.799C438.905 176.095 439.145 175.503 439.625 175.023C440.105 174.543 440.681 174.303 441.353 174.303C442.025 174.303 442.585 174.543 443.033 175.023C443.513 175.503 443.753 176.095 443.753 176.799C443.753 177.503 443.529 178.095 443.081 178.575C442.633 179.055 442.073 179.295 441.401 179.295C440.697 179.295 440.105 179.055 439.625 178.575C439.145 178.127 438.905 177.535 438.905 176.799ZM407.897 212.346C407.897 209.85 408.441 207.61 409.529 205.626C410.649 203.674 412.169 202.138 414.089 201.018C416.041 199.898 418.265 199.338 420.761 199.338C423.289 199.338 425.513 199.898 427.433 201.018C429.353 202.138 430.857 203.674 431.945 205.626C433.033 207.61 433.577 209.85 433.577 212.346C433.577 214.49 433.161 216.426 432.329 218.154C431.497 219.882 430.249 221.242 428.585 222.234L426.857 219.69C428.137 218.826 429.081 217.754 429.689 216.474C430.297 215.194 430.601 213.802 430.601 212.298C430.601 210.506 430.185 208.89 429.353 207.45C428.553 206.01 427.417 204.874 425.945 204.042C424.473 203.21 422.745 202.794 420.761 202.794C418.777 202.794 417.049 203.21 415.577 204.042C414.105 204.874 412.953 206.01 412.121 207.45C411.321 208.89 410.921 210.506 410.921 212.298C410.921 213.802 411.225 215.194 411.833 216.474C412.441 217.754 413.369 218.826 414.617 219.69L412.889 222.234C411.257 221.242 410.009 219.882 409.145 218.154C408.313 216.426 407.897 214.49 407.897 212.346ZM414.665 245.162L419.033 245.258L433.337 260.954L433.337 265.13L422.729 254.042L421.097 252.122L414.665 245.162ZM408.137 242.474L443.753 242.474L443.753 245.882L408.137 245.882L408.137 242.474ZM408.137 262.01L421.241 251.498L423.881 253.706L408.137 266.186L408.137 262.01ZM407.897 294.942C407.897 292.318 408.441 290.014 409.529 288.03C410.649 286.046 412.169 284.494 414.089 283.374C416.041 282.254 418.265 281.694 420.761 281.694C423.257 281.694 425.465 282.222 427.385 283.278C429.305 284.366 430.809 285.838 431.897 287.694C433.017 289.582 433.577 291.694 433.577 294.03C433.577 296.398 433.033 298.494 431.945 300.318C430.889 302.174 429.385 303.63 427.433 304.686C425.513 305.742 423.289 306.27 420.761 306.27C420.601 306.27 420.425 306.254 420.233 306.222C420.073 306.222 419.897 306.222 419.705 306.222L419.705 284.286L422.249 284.286L422.249 304.398L421.241 303.054C423.065 303.054 424.681 302.654 426.089 301.854C427.529 301.086 428.649 300.03 429.449 298.686C430.249 297.342 430.649 295.79 430.649 294.03C430.649 292.302 430.249 290.75 429.449 289.374C428.649 287.998 427.529 286.926 426.089 286.158C424.649 285.39 423.001 285.006 421.145 285.006L420.617 285.006C418.697 285.006 417.001 285.422 415.529 286.254C414.089 287.118 412.953 288.302 412.121 289.806C411.321 291.342 410.921 293.086 410.921 295.038C410.921 296.574 411.193 297.998 411.737 299.31C412.281 300.654 413.113 301.806 414.233 302.766L412.025 304.686C410.681 303.566 409.657 302.158 408.953 300.462C408.249 298.798 407.897 296.958 407.897 294.942ZM433.577 339.99C433.577 342.038 433.177 343.83 432.377 345.366C431.609 346.934 430.425 348.15 428.825 349.014C427.225 349.91 425.209 350.358 422.777 350.358L408.137 350.358L408.137 346.95L422.441 346.95C425.097 346.95 427.097 346.278 428.441 344.934C429.817 343.622 430.505 341.766 430.505 339.366C430.505 337.574 430.137 336.006 429.401 334.662C428.697 333.35 427.657 332.326 426.281 331.59C424.937 330.886 423.305 330.534 421.385 330.534L408.137 330.534L408.137 327.126L433.337 327.126L433.337 330.39L426.425 330.39L427.721 329.862C429.545 330.662 430.969 331.942 431.993 333.702C433.049 335.462 433.577 337.558 433.577 339.99Z" fill="black"/>
<path d="M346.267 416.49L346.411 420.81L326.059 441.738L321.979 441.738L336.811 426.186L338.827 424.026L346.267 416.49ZM349.339 408.138L349.339 441.738L345.787 441.738L345.787 408.138L349.339 408.138ZM325.195 408.138L339.691 424.842L337.291 427.434L320.971 408.138L325.195 408.138ZM302.014 408.138L302.014 443.754L298.606 443.754L298.606 408.138L302.014 408.138ZM275.204 408.138L275.204 433.338L271.796 433.338L271.796 408.138L275.204 408.138ZM273.476 438.906C274.18 438.906 274.772 439.146 275.252 439.626C275.732 440.106 275.972 440.682 275.972 441.354C275.972 442.026 275.732 442.586 275.252 443.034C274.772 443.514 274.18 443.754 273.476 443.754C272.772 443.754 272.18 443.53 271.7 443.082C271.22 442.634 270.98 442.074 270.98 441.402C270.98 440.698 271.22 440.106 271.7 439.626C272.148 439.146 272.74 438.906 273.476 438.906ZM237.929 407.898C240.425 407.898 242.665 408.442 244.649 409.53C246.601 410.65 248.137 412.17 249.257 414.09C250.377 416.042 250.937 418.266 250.937 420.762C250.937 423.29 250.377 425.514 249.257 427.434C248.137 429.354 246.601 430.858 244.649 431.946C242.665 433.034 240.425 433.578 237.929 433.578C235.785 433.578 233.849 433.162 232.121 432.33C230.393 431.498 229.033 430.25 228.041 428.586L230.585 426.858C231.449 428.138 232.521 429.082 233.801 429.69C235.081 430.298 236.473 430.602 237.977 430.602C239.769 430.602 241.385 430.186 242.825 429.354C244.265 428.554 245.401 427.418 246.233 425.946C247.065 424.474 247.481 422.746 247.481 420.762C247.481 418.778 247.065 417.05 246.233 415.578C245.401 414.106 244.265 412.954 242.825 412.122C241.385 411.322 239.769 410.922 237.977 410.922C236.473 410.922 235.081 411.226 233.801 411.834C232.521 412.442 231.449 413.37 230.585 414.618L228.041 412.89C229.033 411.258 230.393 410.01 232.121 409.146C233.849 408.314 235.785 407.898 237.929 407.898ZM205.113 414.666L205.017 419.034L189.321 433.338L185.145 433.338L196.233 422.73L198.153 421.098L205.113 414.666ZM207.801 408.138L207.801 443.754L204.393 443.754L204.393 408.138L207.801 408.138ZM188.265 408.138L198.777 421.242L196.569 423.882L184.089 408.138L188.265 408.138ZM155.333 407.898C157.957 407.898 160.261 408.442 162.245 409.53C164.229 410.65 165.781 412.17 166.901 414.09C168.021 416.042 168.581 418.266 168.581 420.762C168.581 423.258 168.053 425.466 166.997 427.386C165.909 429.306 164.437 430.81 162.581 431.898C160.693 433.018 158.581 433.578 156.245 433.578C153.877 433.578 151.781 433.034 149.957 431.946C148.101 430.89 146.645 429.386 145.589 427.434C144.533 425.514 144.005 423.29 144.005 420.762C144.005 420.602 144.021 420.426 144.053 420.234C144.053 420.074 144.053 419.898 144.053 419.706L165.989 419.706L165.989 422.25L145.877 422.25L147.221 421.242C147.221 423.066 147.621 424.682 148.421 426.09C149.189 427.53 150.245 428.65 151.589 429.45C152.933 430.25 154.485 430.65 156.245 430.65C157.973 430.65 159.525 430.25 160.901 429.45C162.277 428.65 163.349 427.53 164.117 426.09C164.885 424.65 165.269 423.002 165.269 421.146L165.269 420.618C165.269 418.698 164.853 417.002 164.021 415.53C163.157 414.09 161.973 412.954 160.469 412.122C158.933 411.322 157.189 410.922 155.237 410.922C153.701 410.922 152.277 411.194 150.965 411.738C149.621 412.282 148.469 413.114 147.509 414.234L145.589 412.026C146.709 410.682 148.117 409.658 149.813 408.954C151.477 408.25 153.317 407.898 155.333 407.898ZM110.285 433.578C108.237 433.578 106.445 433.178 104.909 432.378C103.341 431.61 102.125 430.426 101.261 428.826C100.365 427.226 99.9167 425.21 99.9167 422.778L99.9167 408.138L103.325 408.138L103.325 422.442C103.325 425.098 103.997 427.098 105.341 428.442C106.653 429.818 108.509 430.506 110.909 430.506C112.701 430.506 114.269 430.138 115.613 429.402C116.925 428.698 117.949 427.658 118.685 426.282C119.389 424.938 119.741 423.306 119.741 421.386L119.741 408.138L123.149 408.138L123.149 433.338L119.885 433.338L119.885 426.426L120.413 427.722C119.613 429.546 118.333 430.97 116.573 431.994C114.813 433.05 112.717 433.578 110.285 433.578Z" fill="black"/>
<path d="M33.7852 346.268L29.4652 346.412L8.53721 326.06L8.53721 321.98L24.0892 336.812L26.2492 338.828L33.7852 346.268ZM42.1372 349.34L8.53721 349.34L8.53721 345.788L42.1372 345.788L42.1372 349.34ZM42.1372 325.196L25.4332 339.692L22.8412 337.292L42.1372 320.972L42.1372 325.196ZM42.1372 302.015L6.52121 302.015L6.52121 298.607L42.1372 298.607L42.1372 302.015ZM42.1372 275.204L16.9372 275.204L16.9372 271.796L42.1372 271.796L42.1372 275.204ZM11.3692 273.476C11.3692 274.18 11.1292 274.772 10.6492 275.252C10.1692 275.732 9.59321 275.972 8.92121 275.972C8.24921 275.972 7.68921 275.732 7.24121 275.252C6.76121 274.772 6.52121 274.18 6.52121 273.476C6.52121 272.772 6.74521 272.18 7.19321 271.7C7.64121 271.22 8.20121 270.98 8.87321 270.98C9.57721 270.98 10.1692 271.22 10.6492 271.7C11.1292 272.148 11.3692 272.74 11.3692 273.476ZM42.3772 237.93C42.3772 240.426 41.8332 242.666 40.7452 244.65C39.6252 246.602 38.1052 248.138 36.1852 249.258C34.2332 250.378 32.0092 250.938 29.5132 250.938C26.9852 250.938 24.7612 250.378 22.8412 249.258C20.9212 248.138 19.4172 246.602 18.3292 244.65C17.2412 242.666 16.6972 240.426 16.6972 237.93C16.6972 235.786 17.1132 233.85 17.9452 232.122C18.7772 230.394 20.0252 229.034 21.6892 228.042L23.4172 230.586C22.1372 231.45 21.1932 232.522 20.5852 233.802C19.9772 235.082 19.6732 236.474 19.6732 237.978C19.6732 239.77 20.0892 241.386 20.9212 242.826C21.7212 244.266 22.8572 245.402 24.3292 246.234C25.8012 247.066 27.5292 247.482 29.5132 247.482C31.4972 247.482 33.2252 247.066 34.6972 246.234C36.1692 245.402 37.3212 244.266 38.1532 242.826C38.9532 241.386 39.3532 239.77 39.3532 237.978C39.3532 236.474 39.0492 235.082 38.4412 233.802C37.8332 232.522 36.9052 231.45 35.6572 230.586L37.3852 228.042C39.0172 229.034 40.2652 230.394 41.1292 232.122C41.9612 233.85 42.3772 235.786 42.3772 237.93ZM35.6092 205.114L31.2412 205.018L16.9372 189.322L16.9372 185.146L27.5452 196.234L29.1772 198.154L35.6092 205.114ZM42.1372 207.802L6.52121 207.802L6.52121 204.394L42.1372 204.394L42.1372 207.802ZM42.1372 188.266L29.0332 198.778L26.3932 196.57L42.1372 184.09L42.1372 188.266ZM42.3772 155.334C42.3772 157.958 41.8332 160.262 40.7452 162.246C39.6252 164.23 38.1052 165.782 36.1852 166.902C34.2332 168.022 32.0092 168.582 29.5132 168.582C27.0172 168.582 24.8092 168.054 22.8892 166.998C20.9692 165.91 19.4652 164.438 18.3772 162.582C17.2572 160.694 16.6972 158.582 16.6972 156.246C16.6972 153.878 17.2412 151.782 18.3292 149.958C19.3852 148.102 20.8892 146.646 22.8412 145.59C24.7612 144.534 26.9852 144.006 29.5132 144.006C29.6732 144.006 29.8492 144.022 30.0412 144.054C30.2012 144.054 30.3772 144.054 30.5692 144.054L30.5692 165.99L28.0252 165.99L28.0252 145.878L29.0332 147.222C27.2092 147.222 25.5932 147.622 24.1852 148.422C22.7452 149.19 21.6252 150.246 20.8252 151.59C20.0252 152.934 19.6252 154.486 19.6252 156.246C19.6252 157.974 20.0252 159.526 20.8252 160.902C21.6252 162.278 22.7452 163.35 24.1852 164.118C25.6252 164.886 27.2732 165.27 29.1292 165.27L29.6572 165.27C31.5772 165.27 33.2732 164.854 34.7452 164.022C36.1852 163.158 37.3212 161.974 38.1532 160.47C38.9532 158.934 39.3532 157.19 39.3532 155.238C39.3532 153.702 39.0812 152.278 38.5372 150.966C37.9932 149.622 37.1612 148.47 36.0412 147.51L38.2492 145.59C39.5932 146.71 40.6172 148.118 41.3212 149.814C42.0252 151.478 42.3772 153.318 42.3772 155.334ZM16.6972 110.285C16.6972 108.237 17.0972 106.445 17.8972 104.909C18.6652 103.341 19.8492 102.125 21.4492 101.261C23.0492 100.365 25.0652 99.9172 27.4972 99.9172L42.1372 99.9172L42.1372 103.325L27.8332 103.325C25.1772 103.325 23.1772 103.997 21.8332 105.341C20.4572 106.653 19.7692 108.509 19.7692 110.909C19.7692 112.701 20.1372 114.269 20.8732 115.613C21.5772 116.925 22.6172 117.949 23.9932 118.685C25.3372 119.389 26.9692 119.741 28.8892 119.741L42.1372 119.741L42.1372 123.149L16.9372 123.149L16.9372 119.885L23.8492 119.885L22.5532 120.413C20.7292 119.613 19.3052 118.333 18.2812 116.573C17.2252 114.813 16.6972 112.717 16.6972 110.285Z" fill="black"/>
</svg>
